<mxfile host="Electron" agent="Mozilla/5.0 (Windows NT 10.0; Win64; x64) AppleWebKit/537.36 (KHTML, like Gecko) draw.io/26.0.16 Chrome/132.0.6834.196 Electron/34.2.0 Safari/537.36" version="26.0.16">
  <diagram name="第 1 页" id="YeQzA3VN7lqJCAd1dvJA">
    <mxGraphModel dx="826" dy="599" grid="1" gridSize="10" guides="1" tooltips="1" connect="1" arrows="1" fold="1" page="1" pageScale="1" pageWidth="827" pageHeight="1169" math="0" shadow="0">
      <root>
        <mxCell id="0" />
        <mxCell id="1" parent="0" />
        <mxCell id="f0N6z-LW5dwgBqCQh4tM-8" value="" style="rounded=0;whiteSpace=wrap;html=1;" vertex="1" parent="1">
          <mxGeometry x="82" y="497" width="190" height="95" as="geometry" />
        </mxCell>
        <mxCell id="f0N6z-LW5dwgBqCQh4tM-9" value="" style="rounded=0;whiteSpace=wrap;html=1;" vertex="1" parent="1">
          <mxGeometry x="472" y="497.5" width="190" height="95" as="geometry" />
        </mxCell>
        <mxCell id="zhyjI7YGJZxHxWYPxkIr-2" value="" style="ellipse;whiteSpace=wrap;html=1;aspect=fixed;" parent="1" vertex="1">
          <mxGeometry x="200" y="280" width="130" height="130" as="geometry" />
        </mxCell>
        <mxCell id="zhyjI7YGJZxHxWYPxkIr-1" value="输出队列" style="ellipse;whiteSpace=wrap;html=1;aspect=fixed;" parent="1" vertex="1">
          <mxGeometry x="230" y="310" width="70" height="70" as="geometry" />
        </mxCell>
        <mxCell id="zhyjI7YGJZxHxWYPxkIr-3" value="" style="ellipse;whiteSpace=wrap;html=1;aspect=fixed;" parent="1" vertex="1">
          <mxGeometry x="420" y="280" width="130" height="130" as="geometry" />
        </mxCell>
        <mxCell id="zhyjI7YGJZxHxWYPxkIr-4" value="输入队列" style="ellipse;whiteSpace=wrap;html=1;aspect=fixed;" parent="1" vertex="1">
          <mxGeometry x="450" y="310" width="70" height="70" as="geometry" />
        </mxCell>
        <mxCell id="zhyjI7YGJZxHxWYPxkIr-5" value="" style="endArrow=none;html=1;rounded=0;exitX=0.5;exitY=1;exitDx=0;exitDy=0;entryX=0.5;entryY=1;entryDx=0;entryDy=0;" parent="1" source="zhyjI7YGJZxHxWYPxkIr-2" target="zhyjI7YGJZxHxWYPxkIr-1" edge="1">
          <mxGeometry width="50" height="50" relative="1" as="geometry">
            <mxPoint x="220" y="390" as="sourcePoint" />
            <mxPoint x="270" y="340" as="targetPoint" />
          </mxGeometry>
        </mxCell>
        <mxCell id="zhyjI7YGJZxHxWYPxkIr-6" value="" style="endArrow=none;html=1;rounded=0;entryX=1;entryY=1;entryDx=0;entryDy=0;exitX=1;exitY=1;exitDx=0;exitDy=0;" parent="1" source="zhyjI7YGJZxHxWYPxkIr-1" target="zhyjI7YGJZxHxWYPxkIr-2" edge="1">
          <mxGeometry width="50" height="50" relative="1" as="geometry">
            <mxPoint x="280" y="520" as="sourcePoint" />
            <mxPoint x="330" y="470" as="targetPoint" />
          </mxGeometry>
        </mxCell>
        <mxCell id="zhyjI7YGJZxHxWYPxkIr-7" value="" style="rounded=0;whiteSpace=wrap;html=1;" parent="1" vertex="1">
          <mxGeometry x="165" y="507.5" width="40" height="60" as="geometry" />
        </mxCell>
        <mxCell id="zhyjI7YGJZxHxWYPxkIr-8" value="" style="rounded=0;whiteSpace=wrap;html=1;" parent="1" vertex="1">
          <mxGeometry x="225" y="507.5" width="40" height="60" as="geometry" />
        </mxCell>
        <mxCell id="zhyjI7YGJZxHxWYPxkIr-11" value="" style="rounded=0;whiteSpace=wrap;html=1;" parent="1" vertex="1">
          <mxGeometry x="480" y="507.5" width="40" height="60" as="geometry" />
        </mxCell>
        <mxCell id="zhyjI7YGJZxHxWYPxkIr-12" value="" style="rounded=0;whiteSpace=wrap;html=1;" parent="1" vertex="1">
          <mxGeometry x="540" y="507.5" width="40" height="60" as="geometry" />
        </mxCell>
        <mxCell id="zhyjI7YGJZxHxWYPxkIr-13" value="SQ" style="text;html=1;align=center;verticalAlign=middle;resizable=0;points=[];autosize=1;strokeColor=none;fillColor=none;" parent="1" vertex="1">
          <mxGeometry x="225" y="562.5" width="40" height="30" as="geometry" />
        </mxCell>
        <mxCell id="zhyjI7YGJZxHxWYPxkIr-14" value="RQ" style="text;html=1;align=center;verticalAlign=middle;resizable=0;points=[];autosize=1;strokeColor=none;fillColor=none;" parent="1" vertex="1">
          <mxGeometry x="165" y="562.5" width="40" height="30" as="geometry" />
        </mxCell>
        <mxCell id="zhyjI7YGJZxHxWYPxkIr-15" value="SQ" style="text;html=1;align=center;verticalAlign=middle;resizable=0;points=[];autosize=1;strokeColor=none;fillColor=none;" parent="1" vertex="1">
          <mxGeometry x="540" y="562.5" width="40" height="30" as="geometry" />
        </mxCell>
        <mxCell id="zhyjI7YGJZxHxWYPxkIr-16" value="RQ" style="text;html=1;align=center;verticalAlign=middle;resizable=0;points=[];autosize=1;strokeColor=none;fillColor=none;" parent="1" vertex="1">
          <mxGeometry x="480" y="562.5" width="40" height="30" as="geometry" />
        </mxCell>
        <mxCell id="zhyjI7YGJZxHxWYPxkIr-18" value="" style="endArrow=none;html=1;rounded=0;exitX=1;exitY=0.5;exitDx=0;exitDy=0;entryX=1;entryY=0.5;entryDx=0;entryDy=0;" parent="1" source="zhyjI7YGJZxHxWYPxkIr-2" target="zhyjI7YGJZxHxWYPxkIr-1" edge="1">
          <mxGeometry width="50" height="50" relative="1" as="geometry">
            <mxPoint x="390" y="470" as="sourcePoint" />
            <mxPoint x="440" y="420" as="targetPoint" />
          </mxGeometry>
        </mxCell>
        <mxCell id="zhyjI7YGJZxHxWYPxkIr-19" value="" style="endArrow=none;html=1;rounded=0;entryX=0.5;entryY=1;entryDx=0;entryDy=0;exitX=0.5;exitY=1;exitDx=0;exitDy=0;" parent="1" source="zhyjI7YGJZxHxWYPxkIr-4" target="zhyjI7YGJZxHxWYPxkIr-3" edge="1">
          <mxGeometry width="50" height="50" relative="1" as="geometry">
            <mxPoint x="360" y="510" as="sourcePoint" />
            <mxPoint x="410" y="460" as="targetPoint" />
          </mxGeometry>
        </mxCell>
        <mxCell id="zhyjI7YGJZxHxWYPxkIr-20" value="" style="endArrow=none;html=1;rounded=0;entryX=1;entryY=1;entryDx=0;entryDy=0;exitX=1;exitY=1;exitDx=0;exitDy=0;" parent="1" source="zhyjI7YGJZxHxWYPxkIr-3" target="zhyjI7YGJZxHxWYPxkIr-4" edge="1">
          <mxGeometry width="50" height="50" relative="1" as="geometry">
            <mxPoint x="530" y="480" as="sourcePoint" />
            <mxPoint x="580" y="430" as="targetPoint" />
          </mxGeometry>
        </mxCell>
        <mxCell id="zhyjI7YGJZxHxWYPxkIr-22" value="" style="endArrow=none;html=1;rounded=0;entryX=1;entryY=0.5;entryDx=0;entryDy=0;exitX=1;exitY=0.5;exitDx=0;exitDy=0;" parent="1" source="zhyjI7YGJZxHxWYPxkIr-4" target="zhyjI7YGJZxHxWYPxkIr-3" edge="1">
          <mxGeometry width="50" height="50" relative="1" as="geometry">
            <mxPoint x="560" y="470" as="sourcePoint" />
            <mxPoint x="610" y="420" as="targetPoint" />
          </mxGeometry>
        </mxCell>
        <mxCell id="zhyjI7YGJZxHxWYPxkIr-23" value="" style="rounded=1;whiteSpace=wrap;html=1;fillColor=#647687;fontColor=#ffffff;strokeColor=#314354;" parent="1" vertex="1">
          <mxGeometry x="225" y="547.5" width="40" height="20" as="geometry" />
        </mxCell>
        <mxCell id="zhyjI7YGJZxHxWYPxkIr-24" value="" style="rounded=1;whiteSpace=wrap;html=1;fillColor=#647687;fontColor=#ffffff;strokeColor=#314354;" parent="1" vertex="1">
          <mxGeometry x="480" y="547.5" width="40" height="20" as="geometry" />
        </mxCell>
        <mxCell id="zhyjI7YGJZxHxWYPxkIr-25" value="" style="endArrow=none;html=1;rounded=0;exitX=1;exitY=0;exitDx=0;exitDy=0;entryX=1;entryY=0;entryDx=0;entryDy=0;" parent="1" source="zhyjI7YGJZxHxWYPxkIr-1" target="zhyjI7YGJZxHxWYPxkIr-2" edge="1">
          <mxGeometry width="50" height="50" relative="1" as="geometry">
            <mxPoint x="380" y="420" as="sourcePoint" />
            <mxPoint x="430" y="370" as="targetPoint" />
          </mxGeometry>
        </mxCell>
        <mxCell id="zhyjI7YGJZxHxWYPxkIr-26" value="" style="endArrow=none;html=1;rounded=0;entryX=0;entryY=1;entryDx=0;entryDy=0;exitX=0;exitY=1;exitDx=0;exitDy=0;" parent="1" source="zhyjI7YGJZxHxWYPxkIr-1" target="zhyjI7YGJZxHxWYPxkIr-2" edge="1">
          <mxGeometry width="50" height="50" relative="1" as="geometry">
            <mxPoint x="110" y="520" as="sourcePoint" />
            <mxPoint x="160" y="470" as="targetPoint" />
          </mxGeometry>
        </mxCell>
        <mxCell id="zhyjI7YGJZxHxWYPxkIr-27" value="" style="endArrow=none;html=1;rounded=0;entryX=0;entryY=0.5;entryDx=0;entryDy=0;exitX=0;exitY=0.5;exitDx=0;exitDy=0;" parent="1" source="zhyjI7YGJZxHxWYPxkIr-1" target="zhyjI7YGJZxHxWYPxkIr-2" edge="1">
          <mxGeometry width="50" height="50" relative="1" as="geometry">
            <mxPoint x="90" y="430" as="sourcePoint" />
            <mxPoint x="140" y="380" as="targetPoint" />
          </mxGeometry>
        </mxCell>
        <mxCell id="zhyjI7YGJZxHxWYPxkIr-28" value="" style="endArrow=none;html=1;rounded=0;entryX=0;entryY=0;entryDx=0;entryDy=0;exitX=0;exitY=0;exitDx=0;exitDy=0;" parent="1" source="zhyjI7YGJZxHxWYPxkIr-1" target="zhyjI7YGJZxHxWYPxkIr-2" edge="1">
          <mxGeometry width="50" height="50" relative="1" as="geometry">
            <mxPoint x="110" y="370" as="sourcePoint" />
            <mxPoint x="160" y="320" as="targetPoint" />
          </mxGeometry>
        </mxCell>
        <mxCell id="zhyjI7YGJZxHxWYPxkIr-29" value="" style="endArrow=none;html=1;rounded=0;entryX=0.5;entryY=0;entryDx=0;entryDy=0;exitX=0.5;exitY=0;exitDx=0;exitDy=0;" parent="1" source="zhyjI7YGJZxHxWYPxkIr-1" target="zhyjI7YGJZxHxWYPxkIr-2" edge="1">
          <mxGeometry width="50" height="50" relative="1" as="geometry">
            <mxPoint x="150" y="320" as="sourcePoint" />
            <mxPoint x="200" y="270" as="targetPoint" />
          </mxGeometry>
        </mxCell>
        <mxCell id="zhyjI7YGJZxHxWYPxkIr-30" value="" style="endArrow=none;html=1;rounded=0;entryX=0;entryY=1;entryDx=0;entryDy=0;exitX=0;exitY=1;exitDx=0;exitDy=0;" parent="1" source="zhyjI7YGJZxHxWYPxkIr-4" target="zhyjI7YGJZxHxWYPxkIr-3" edge="1">
          <mxGeometry width="50" height="50" relative="1" as="geometry">
            <mxPoint x="280" y="490" as="sourcePoint" />
            <mxPoint x="330" y="440" as="targetPoint" />
          </mxGeometry>
        </mxCell>
        <mxCell id="zhyjI7YGJZxHxWYPxkIr-31" value="" style="endArrow=none;html=1;rounded=0;entryX=0;entryY=0.5;entryDx=0;entryDy=0;exitX=0;exitY=0.5;exitDx=0;exitDy=0;" parent="1" source="zhyjI7YGJZxHxWYPxkIr-3" target="zhyjI7YGJZxHxWYPxkIr-4" edge="1">
          <mxGeometry width="50" height="50" relative="1" as="geometry">
            <mxPoint x="340" y="460" as="sourcePoint" />
            <mxPoint x="390" y="410" as="targetPoint" />
          </mxGeometry>
        </mxCell>
        <mxCell id="zhyjI7YGJZxHxWYPxkIr-32" value="" style="endArrow=none;html=1;rounded=0;entryX=0;entryY=0;entryDx=0;entryDy=0;exitX=0;exitY=0;exitDx=0;exitDy=0;" parent="1" source="zhyjI7YGJZxHxWYPxkIr-4" target="zhyjI7YGJZxHxWYPxkIr-3" edge="1">
          <mxGeometry width="50" height="50" relative="1" as="geometry">
            <mxPoint x="320" y="450" as="sourcePoint" />
            <mxPoint x="370" y="400" as="targetPoint" />
          </mxGeometry>
        </mxCell>
        <mxCell id="zhyjI7YGJZxHxWYPxkIr-33" value="" style="endArrow=none;html=1;rounded=0;entryX=0.5;entryY=0;entryDx=0;entryDy=0;exitX=0.5;exitY=0;exitDx=0;exitDy=0;" parent="1" source="zhyjI7YGJZxHxWYPxkIr-4" target="zhyjI7YGJZxHxWYPxkIr-3" edge="1">
          <mxGeometry width="50" height="50" relative="1" as="geometry">
            <mxPoint x="320" y="450" as="sourcePoint" />
            <mxPoint x="370" y="400" as="targetPoint" />
          </mxGeometry>
        </mxCell>
        <mxCell id="zhyjI7YGJZxHxWYPxkIr-34" value="" style="endArrow=none;html=1;rounded=0;entryX=1;entryY=0;entryDx=0;entryDy=0;" parent="1" target="zhyjI7YGJZxHxWYPxkIr-3" edge="1">
          <mxGeometry width="50" height="50" relative="1" as="geometry">
            <mxPoint x="510" y="320" as="sourcePoint" />
            <mxPoint x="390" y="450" as="targetPoint" />
          </mxGeometry>
        </mxCell>
        <mxCell id="zhyjI7YGJZxHxWYPxkIr-35" value="发送线程" style="shape=umlActor;verticalLabelPosition=bottom;verticalAlign=top;html=1;outlineConnect=0;" parent="1" vertex="1">
          <mxGeometry x="150" y="410" width="30" height="60" as="geometry" />
        </mxCell>
        <mxCell id="zhyjI7YGJZxHxWYPxkIr-36" value="接收线程" style="shape=umlActor;verticalLabelPosition=bottom;verticalAlign=top;html=1;outlineConnect=0;" parent="1" vertex="1">
          <mxGeometry x="560" y="410" width="30" height="60" as="geometry" />
        </mxCell>
        <mxCell id="f0N6z-LW5dwgBqCQh4tM-1" value="" style="rounded=0;whiteSpace=wrap;html=1;" vertex="1" parent="1">
          <mxGeometry x="90" y="507.5" width="40" height="60" as="geometry" />
        </mxCell>
        <mxCell id="f0N6z-LW5dwgBqCQh4tM-2" value="" style="rounded=0;whiteSpace=wrap;html=1;" vertex="1" parent="1">
          <mxGeometry x="615" y="507.5" width="40" height="60" as="geometry" />
        </mxCell>
        <mxCell id="f0N6z-LW5dwgBqCQh4tM-5" value="wr" style="rounded=1;whiteSpace=wrap;html=1;" vertex="1" parent="1">
          <mxGeometry x="190" y="440" width="40" height="20" as="geometry" />
        </mxCell>
        <mxCell id="f0N6z-LW5dwgBqCQh4tM-6" value="CQ" style="text;html=1;align=center;verticalAlign=middle;resizable=0;points=[];autosize=1;strokeColor=none;fillColor=none;" vertex="1" parent="1">
          <mxGeometry x="80" y="562.5" width="40" height="30" as="geometry" />
        </mxCell>
        <mxCell id="f0N6z-LW5dwgBqCQh4tM-7" value="CQ" style="text;html=1;align=center;verticalAlign=middle;resizable=0;points=[];autosize=1;strokeColor=none;fillColor=none;" vertex="1" parent="1">
          <mxGeometry x="615" y="562" width="40" height="30" as="geometry" />
        </mxCell>
        <mxCell id="f0N6z-LW5dwgBqCQh4tM-10" value="RDMA&amp;nbsp; 网卡" style="text;html=1;align=center;verticalAlign=middle;whiteSpace=wrap;rounded=0;" vertex="1" parent="1">
          <mxGeometry x="82" y="592" width="70" height="30" as="geometry" />
        </mxCell>
        <mxCell id="f0N6z-LW5dwgBqCQh4tM-12" value="RDMA&amp;nbsp; 网卡" style="text;html=1;align=center;verticalAlign=middle;whiteSpace=wrap;rounded=0;" vertex="1" parent="1">
          <mxGeometry x="472" y="592.5" width="70" height="30" as="geometry" />
        </mxCell>
        <mxCell id="f0N6z-LW5dwgBqCQh4tM-16" value="wr" style="rounded=1;whiteSpace=wrap;html=1;" vertex="1" parent="1">
          <mxGeometry x="510" y="440" width="40" height="20" as="geometry" />
        </mxCell>
        <mxCell id="f0N6z-LW5dwgBqCQh4tM-19" value="" style="endArrow=classic;html=1;rounded=0;entryX=0.5;entryY=0;entryDx=0;entryDy=0;" edge="1" parent="1" target="zhyjI7YGJZxHxWYPxkIr-2">
          <mxGeometry width="50" height="50" relative="1" as="geometry">
            <mxPoint x="265" y="260" as="sourcePoint" />
            <mxPoint x="265" y="250" as="targetPoint" />
          </mxGeometry>
        </mxCell>
        <mxCell id="f0N6z-LW5dwgBqCQh4tM-20" value="tail" style="text;html=1;align=center;verticalAlign=middle;resizable=0;points=[];autosize=1;strokeColor=none;fillColor=none;" vertex="1" parent="1">
          <mxGeometry x="232" y="252" width="40" height="30" as="geometry" />
        </mxCell>
        <mxCell id="f0N6z-LW5dwgBqCQh4tM-21" value="" style="endArrow=classic;html=1;rounded=0;" edge="1" parent="1">
          <mxGeometry width="50" height="50" relative="1" as="geometry">
            <mxPoint x="265" y="430" as="sourcePoint" />
            <mxPoint x="265" y="410" as="targetPoint" />
          </mxGeometry>
        </mxCell>
        <mxCell id="f0N6z-LW5dwgBqCQh4tM-22" value="head" style="text;html=1;align=center;verticalAlign=middle;resizable=0;points=[];autosize=1;strokeColor=none;fillColor=none;" vertex="1" parent="1">
          <mxGeometry x="220" y="405" width="50" height="30" as="geometry" />
        </mxCell>
        <mxCell id="f0N6z-LW5dwgBqCQh4tM-24" value="" style="endArrow=classic;html=1;rounded=0;" edge="1" parent="1">
          <mxGeometry width="50" height="50" relative="1" as="geometry">
            <mxPoint x="485" y="259" as="sourcePoint" />
            <mxPoint x="485" y="279" as="targetPoint" />
          </mxGeometry>
        </mxCell>
        <mxCell id="f0N6z-LW5dwgBqCQh4tM-27" value="&lt;font style=&quot;color: rgb(255, 0, 0);&quot;&gt;msg&lt;/font&gt;" style="text;html=1;align=center;verticalAlign=middle;whiteSpace=wrap;rounded=0;" vertex="1" parent="1">
          <mxGeometry x="255" y="375" width="60" height="30" as="geometry" />
        </mxCell>
        <mxCell id="f0N6z-LW5dwgBqCQh4tM-28" value="head" style="text;html=1;align=center;verticalAlign=middle;resizable=0;points=[];autosize=1;strokeColor=none;fillColor=none;" vertex="1" parent="1">
          <mxGeometry x="480" y="252" width="50" height="30" as="geometry" />
        </mxCell>
        <mxCell id="f0N6z-LW5dwgBqCQh4tM-30" value="msg" style="text;html=1;align=center;verticalAlign=middle;whiteSpace=wrap;rounded=0;" vertex="1" parent="1">
          <mxGeometry x="280" y="350" width="60" height="30" as="geometry" />
        </mxCell>
        <mxCell id="f0N6z-LW5dwgBqCQh4tM-31" value="msg" style="text;html=1;align=center;verticalAlign=middle;whiteSpace=wrap;rounded=0;" vertex="1" parent="1">
          <mxGeometry x="280" y="310" width="60" height="30" as="geometry" />
        </mxCell>
        <mxCell id="f0N6z-LW5dwgBqCQh4tM-32" value="msg" style="text;html=1;align=center;verticalAlign=middle;whiteSpace=wrap;rounded=0;" vertex="1" parent="1">
          <mxGeometry x="255" y="283" width="60" height="30" as="geometry" />
        </mxCell>
        <mxCell id="f0N6z-LW5dwgBqCQh4tM-33" value="" style="endArrow=classic;html=1;rounded=0;" edge="1" parent="1">
          <mxGeometry width="50" height="50" relative="1" as="geometry">
            <mxPoint x="485" y="430" as="sourcePoint" />
            <mxPoint x="485" y="410" as="targetPoint" />
          </mxGeometry>
        </mxCell>
        <mxCell id="f0N6z-LW5dwgBqCQh4tM-34" value="post" style="text;html=1;align=center;verticalAlign=middle;resizable=0;points=[];autosize=1;strokeColor=none;fillColor=none;" vertex="1" parent="1">
          <mxGeometry x="476" y="407" width="50" height="30" as="geometry" />
        </mxCell>
        <mxCell id="f0N6z-LW5dwgBqCQh4tM-35" value="msg" style="text;html=1;align=center;verticalAlign=middle;resizable=0;points=[];autosize=1;strokeColor=none;fillColor=none;" vertex="1" parent="1">
          <mxGeometry x="440" y="283" width="50" height="30" as="geometry" />
        </mxCell>
        <mxCell id="f0N6z-LW5dwgBqCQh4tM-36" value="msg" style="text;html=1;align=center;verticalAlign=middle;resizable=0;points=[];autosize=1;strokeColor=none;fillColor=none;" vertex="1" parent="1">
          <mxGeometry x="414" y="310" width="50" height="30" as="geometry" />
        </mxCell>
        <mxCell id="f0N6z-LW5dwgBqCQh4tM-37" value="" style="endArrow=classic;html=1;rounded=0;exitX=0.5;exitY=1;exitDx=0;exitDy=0;entryX=0.5;entryY=0;entryDx=0;entryDy=0;edgeStyle=orthogonalEdgeStyle;curved=1;dashed=1;dashPattern=1 4;" edge="1" parent="1" source="f0N6z-LW5dwgBqCQh4tM-5" target="zhyjI7YGJZxHxWYPxkIr-8">
          <mxGeometry width="50" height="50" relative="1" as="geometry">
            <mxPoint x="320" y="500" as="sourcePoint" />
            <mxPoint x="370" y="450" as="targetPoint" />
          </mxGeometry>
        </mxCell>
        <mxCell id="f0N6z-LW5dwgBqCQh4tM-38" value="" style="endArrow=classic;html=1;rounded=0;exitX=0.5;exitY=1;exitDx=0;exitDy=0;entryX=0.5;entryY=0;entryDx=0;entryDy=0;edgeStyle=orthogonalEdgeStyle;curved=1;dashed=1;dashPattern=1 4;" edge="1" parent="1" source="f0N6z-LW5dwgBqCQh4tM-16" target="zhyjI7YGJZxHxWYPxkIr-11">
          <mxGeometry width="50" height="50" relative="1" as="geometry">
            <mxPoint x="320" y="530" as="sourcePoint" />
            <mxPoint x="370" y="480" as="targetPoint" />
          </mxGeometry>
        </mxCell>
        <mxCell id="f0N6z-LW5dwgBqCQh4tM-40" value="" style="shape=flexArrow;endArrow=classic;html=1;rounded=0;exitX=0.5;exitY=1;exitDx=0;exitDy=0;dashed=1;" edge="1" parent="1">
          <mxGeometry width="50" height="50" relative="1" as="geometry">
            <mxPoint x="290" y="409" as="sourcePoint" />
            <mxPoint x="455" y="410" as="targetPoint" />
            <Array as="points">
              <mxPoint x="290" y="574" />
              <mxPoint x="455" y="574" />
            </Array>
          </mxGeometry>
        </mxCell>
        <mxCell id="f0N6z-LW5dwgBqCQh4tM-41" value="msg" style="text;html=1;align=center;verticalAlign=middle;whiteSpace=wrap;rounded=0;" vertex="1" parent="1">
          <mxGeometry x="409" y="350" width="60" height="30" as="geometry" />
        </mxCell>
        <mxCell id="f0N6z-LW5dwgBqCQh4tM-42" value="&lt;font style=&quot;color: rgb(255, 0, 0);&quot;&gt;msg&lt;/font&gt;" style="text;html=1;align=center;verticalAlign=middle;resizable=0;points=[];autosize=1;strokeColor=none;fillColor=none;" vertex="1" parent="1">
          <mxGeometry x="440" y="377" width="50" height="30" as="geometry" />
        </mxCell>
        <mxCell id="f0N6z-LW5dwgBqCQh4tM-44" value="&lt;font style=&quot;color: rgb(255, 0, 0);&quot;&gt;msg&lt;/font&gt;" style="text;html=1;align=center;verticalAlign=middle;resizable=0;points=[];autosize=1;strokeColor=none;fillColor=none;" vertex="1" parent="1">
          <mxGeometry x="351" y="557.5" width="50" height="30" as="geometry" />
        </mxCell>
        <mxCell id="f0N6z-LW5dwgBqCQh4tM-48" value="" style="endArrow=classic;html=1;rounded=0;exitX=0;exitY=1;exitDx=0;exitDy=0;entryX=1;entryY=0;entryDx=0;entryDy=0;" edge="1" parent="1" source="zhyjI7YGJZxHxWYPxkIr-3">
          <mxGeometry width="50" height="50" relative="1" as="geometry">
            <mxPoint x="340" y="450" as="sourcePoint" />
            <mxPoint x="425.0000000000001" y="405.0000000000001" as="targetPoint" />
          </mxGeometry>
        </mxCell>
        <mxCell id="f0N6z-LW5dwgBqCQh4tM-50" value="tail" style="text;html=1;align=center;verticalAlign=middle;resizable=0;points=[];autosize=1;strokeColor=none;fillColor=none;" vertex="1" parent="1">
          <mxGeometry x="403" y="375" width="40" height="30" as="geometry" />
        </mxCell>
        <mxCell id="f0N6z-LW5dwgBqCQh4tM-51" value="" style="endArrow=classic;html=1;rounded=0;exitX=1;exitY=0.5;exitDx=0;exitDy=0;" edge="1" parent="1" source="zhyjI7YGJZxHxWYPxkIr-23">
          <mxGeometry width="50" height="50" relative="1" as="geometry">
            <mxPoint x="260" y="670" as="sourcePoint" />
            <mxPoint x="285" y="558" as="targetPoint" />
          </mxGeometry>
        </mxCell>
        <mxCell id="f0N6z-LW5dwgBqCQh4tM-52" value="" style="endArrow=classic;html=1;rounded=0;exitX=0;exitY=0.5;exitDx=0;exitDy=0;" edge="1" parent="1" source="zhyjI7YGJZxHxWYPxkIr-24">
          <mxGeometry width="50" height="50" relative="1" as="geometry">
            <mxPoint x="380" y="680" as="sourcePoint" />
            <mxPoint x="460" y="558" as="targetPoint" />
          </mxGeometry>
        </mxCell>
      </root>
    </mxGraphModel>
  </diagram>
</mxfile>
